<svg xmlns="http://www.w3.org/2000/svg" viewBox="0 0 261.63 261.63"><defs><style>.cls-1{fill:#2cacae;stroke:#fff;stroke-miterlimit:10;stroke-width:3px;}.cls-2{fill:#f0875d;}.cls-3{fill:#f5be80;}.cls-4{fill:#eb5043;}.cls-5{fill:#f1885e;}.cls-6{fill:#0b0a0b;}.cls-7{fill:#151418;}.cls-8{fill:#e68f57;}.cls-16,.cls-17,.cls-9{fill:none;stroke-linecap:round;stroke-linejoin:round;}.cls-9{stroke:#eb5043;stroke-width:7px;}.cls-10{fill:#fff;}.cls-11{fill:#070606;}.cls-12{fill:#121015;}.cls-13{fill:#0b0f20;}.cls-14{fill:#dfdbd3;}.cls-15{fill:#eeece4;}.cls-16,.cls-17{stroke:#0b0f20;}.cls-16{stroke-width:2.5px;}.cls-17{stroke-width:2px;}.cls-18{fill:#0c0c0e;}</style></defs><title>Asset 1</title><g id="Layer_2" data-name="Layer 2"><g id="Layer_1-2" data-name="Layer 1"><circle class="cls-1" cx="130.82" cy="130.82" r="129.32"/><rect class="cls-2" x="96.65" y="183.41" width="72.57" height="48.02"/><circle class="cls-3" cx="189.93" cy="142.82" r="14.41"/><path class="cls-3" d="M90.85,142.82a14.41,14.41,0,1,1-26.26-8.18h5v-2.95H67.29a14.41,14.41,0,0,1,23.56,11.13Z"/><circle class="cls-4" cx="76.44" cy="142.82" r="8.19"/><circle class="cls-4" cx="189.98" cy="142.82" r="8.19"/><path class="cls-3" d="M192.06,116.09v41a61.29,61.29,0,0,1-2.39,17H170.44v5.5h17.38c-7.69,19.6-25.07,34.2-45.93,37.41a55.51,55.51,0,0,1-8.7.67c-22.66,0-42.44-13.36-52.27-32.8h9.79v-2.95H79.53a61.48,61.48,0,0,1-5.22-24.85V122.54h8.93V117H74.31v-.94c0-.55,0-1.07,0-1.61,0-.25,0-.51,0-.75,0-.49,0-1,.07-1.48v0a61.16,61.16,0,0,1,26.63-46.87,57.11,57.11,0,0,1,55.43-4.9,59,59,0,0,1,18.28,12.82,61.44,61.44,0,0,1,6.71,8.26h-1.62v5.52h4.95l.49.92c.78,1.5,1.49,3,2.13,4.62A61.29,61.29,0,0,1,192,114.53C192.05,115.05,192.06,115.56,192.06,116.09Z"/><path class="cls-5" d="M83.23,52.65V117H74.31v-4.37c0-.16,0-.32,0-.47v-.29c0-.24,0-.5,0-.75s0-.4,0-.59,0-.07,0-.11h-.1a3.89,3.89,0,0,1-.41-.17,37.15,37.15,0,0,1-6-2.91c-.73-.44-1.44-.9-2.13-1.39a37.65,37.65,0,0,1-6.41-5.6c-.1-.13-.22-.26-.33-.38V75.41H74.31V69.89H59V52.65c0-3.62,5.44-6.59,12.1-6.59A18.17,18.17,0,0,1,79.68,48C81.88,49.2,83.23,50.84,83.23,52.65Z"/><path class="cls-5" d="M74.31,122.54h8.92v5.38c0,3-3.79,5.59-8.92,6.36Z"/><path class="cls-5" d="M192.06,114.53v19.69l-.33,0a36.89,36.89,0,0,1-4.86-.65c-2.41-.51-3.91-1.22-3.91-2v-17Z"/><path class="cls-6" d="M180.86,81.54v5.52h11.2v27.47H111.78L98.45,101v6L84.78,90.42v23.83c-.25,0-.9-.06-1.6-.11-.92,0-1.93-.09-2.26-.16-.7-.11-1.41-.25-2.1-.42-.95-.22-1.87-.47-2.79-.76-.53-.16-1.07-.35-1.6-.55l-.05,0-.08,0h0c-.08,0-.18-.06-.28-.11h0l0,0a3.07,3.07,0,0,1-.42-.17,35.32,35.32,0,0,1-5.88-3c-.71-.44-1.43-.91-2.11-1.42a37.39,37.39,0,0,1-6.31-5.75c-.1-.13-.22-.25-.32-.38a38.12,38.12,0,0,1-9.13-24.87V75.41H74.26V69.89H49.73V36.27h84.84v8.19l8.52-8.19h8.31a40.45,40.45,0,0,1,33.75,18.26c.09.12.17.24.25.37s.34.53.5.8a40.91,40.91,0,0,1,2.28,4.23c.54,1.16,1,2.34,1.46,3.55a41.61,41.61,0,0,1,2.42,14.06v4Z"/><rect class="cls-7" x="65.78" y="55.49" width="90.71" height="9.6" rx="4.5"/><circle class="cls-8" cx="125.97" cy="162.56" r="2.85"/><circle class="cls-8" cx="140.02" cy="162.56" r="2.85"/><path class="cls-9" d="M139.63,191.54a26.39,26.39,0,0,1-33-17.43"/><path class="cls-10" d="M115.93,142.92a10.92,10.92,0,1,1-.58-5.48,10,10,0,0,1,.57,2.25h-3.2v3.23Z"/><circle class="cls-11" cx="105.13" cy="141.75" r="3.71"/><path class="cls-10" d="M171.77,141.31a10.9,10.9,0,0,1-10.91,10.91,10.94,10.94,0,0,1-8.57-4.16,10.9,10.9,0,0,1,8.16-17.67h.41a10.68,10.68,0,0,1,3.06.44,11,11,0,0,1,7.26,6.91,11.78,11.78,0,0,1,.49,2.05A11,11,0,0,1,171.77,141.31Z"/><circle class="cls-11" cx="160.85" cy="141.75" r="3.71"/><rect class="cls-12" x="146.17" y="91.77" width="38.06" height="14.14" rx="6.63"/><rect class="cls-13" x="96.64" y="117.65" width="16.81" height="2.13" rx="1"/><rect class="cls-13" x="152.45" y="117.65" width="16.81" height="2.13" rx="1"/><polygon class="cls-10" points="173.74 221.83 173.74 237.84 90.85 237.84 90.85 221.83 127.98 221.83 132.65 225.97 137.45 221.83 173.74 221.83"/><polygon class="cls-14" points="132.65 225.97 117.44 237.84 90.85 237.84 90.85 221.83 127.98 221.83 132.65 225.97"/><path class="cls-15" d="M115.34,137.44a6.06,6.06,0,0,1-2.68.6,5.51,5.51,0,0,1-5.75-5.25,4.85,4.85,0,0,1,.51-2.17A11,11,0,0,1,115.34,137.44Z"/><path class="cls-15" d="M171.18,137.73a6.08,6.08,0,0,1-1.92.31,5.52,5.52,0,0,1-5.76-5.25,4.83,4.83,0,0,1,.42-2A11,11,0,0,1,171.18,137.73Z"/><path class="cls-15" d="M100.46,151a1,1,0,0,1,0,.17,11,11,0,0,1-4-3.26,3.2,3.2,0,0,1,4,3.09Z"/><path class="cls-15" d="M156.75,151a2.69,2.69,0,0,1,0,.4,10.69,10.69,0,0,1-4.43-3.34,3.09,3.09,0,0,1,1.26-.26A3.2,3.2,0,0,1,156.75,151Z"/><circle class="cls-5" cx="90.85" cy="159.72" r="7.59"/><circle class="cls-5" cx="171.77" cy="159.72" r="7.59"/><rect class="cls-16" x="84.54" y="127.25" width="41.51" height="29" rx="12"/><rect class="cls-16" x="139.93" y="127.25" width="41.51" height="29" rx="12"/><path class="cls-17" d="M125.89,143.88c0-2.85,3.15-5.15,7-5.15s7,2.3,7,5.15"/><rect class="cls-13" x="181.62" y="136.59" width="5.39" height="3.22"/><rect class="cls-13" x="141.09" y="149.79" width="8.23" height="3.22"/><rect class="cls-13" x="79.72" y="145.46" width="7.02" height="3.22"/><rect class="cls-10" x="116.48" y="139.69" width="7.37" height="3.22"/><rect class="cls-3" x="138.67" y="136.4" width="7.34" height="3.15"/><rect class="cls-5" x="83.23" y="117.03" width="0.02" height="5.52"/><rect class="cls-18" x="24.95" y="69.89" width="20.99" height="5.51"/><rect class="cls-3" x="193.84" y="174.11" width="14.93" height="5.51"/><rect class="cls-3" x="79.28" y="196.62" width="14.93" height="4.35"/><rect class="cls-3" x="45.93" y="187.63" width="14.93" height="6.14"/><rect class="cls-3" x="48.25" y="131.69" width="12.61" height="2.94"/><rect class="cls-18" x="193.09" y="81.54" width="11.24" height="5.51"/><rect class="cls-3" x="175.83" y="185.5" width="23.41" height="8.28"/><rect class="cls-18" x="207.09" y="81.54" width="5.51" height="5.51"/></g></g></svg>