<?xml version="1.0" encoding="UTF-8" standalone="no"?>
<!DOCTYPE svg PUBLIC "-//W3C//DTD SVG 1.1//EN" "http://www.w3.org/Graphics/SVG/1.1/DTD/svg11.dtd">
<svg xmlns="http://www.w3.org/2000/svg" xmlns:xlink="http://www.w3.org/1999/xlink" viewBox="0 0 261.63 261.63"><defs><style>.cls-1{fill:none;}.cls-2{clip-path:url(#clip-path);}.cls-3{fill:#60c3db;}.cls-4{fill:#5fc3d9;}.cls-5{fill:#5ec2d8;}.cls-6{fill:#5dc2d7;}.cls-7{fill:#5cc1d6;}.cls-8{fill:#5bc1d5;}.cls-9{fill:#5ac0d4;}.cls-10{fill:#58c0d3;}.cls-11{fill:#57bfd2;}.cls-12{fill:#56bfd1;}.cls-13{fill:#55bed0;}.cls-14{fill:#54becf;}.cls-15{fill:#53bdce;}.cls-16{fill:#51bdcd;}.cls-17{fill:#50bccc;}.cls-18{fill:#4fbccb;}.cls-19{fill:#4ebbca;}.cls-20{fill:#4dbbc9;}.cls-21{fill:#4cbac8;}.cls-22{fill:#4bbac7;}.cls-23{fill:#4abac7;}.cls-24{fill:#49b9c6;}.cls-25{fill:#48b9c5;}.cls-26{fill:#47b8c4;}.cls-27{fill:#46b8c3;}.cls-28{fill:#45b7c2;}.cls-29{fill:#44b7c1;}.cls-30{fill:#42b6c0;}.cls-31{fill:#41b6bf;}.cls-32{fill:#40b5bf;}.cls-33{fill:#3fb5be;}.cls-34{fill:#3eb4bd;}.cls-35{fill:#3db4bc;}.cls-36{fill:#3cb3bb;}.cls-37{fill:#3bb3ba;}.cls-38{fill:#3ab2ba;}.cls-39{fill:#39b2b9;}.cls-40{fill:#38b2b8;}.cls-41{fill:#37b1b7;}.cls-42{fill:#36b1b7;}.cls-43{fill:#35b0b6;}.cls-44{fill:#34b0b5;}.cls-45{fill:#33afb4;}.cls-46{fill:#32afb4;}.cls-47{fill:#32afb3;}.cls-48{fill:#31aeb2;}.cls-49{fill:#30aeb2;}.cls-50{fill:#2fadb1;}.cls-51{fill:#2eadb0;}.cls-52{fill:#2dacaf;}.cls-53{fill:#2cacae;}.cls-54{fill:#fff;}.cls-55{fill:#f0875d;}.cls-56{fill:#f5be80;}.cls-57{fill:#eb5043;}.cls-58{fill:#f1885e;}.cls-59{fill:#0b0a0b;}.cls-60{fill:#151418;}.cls-61{fill:#e68f57;}.cls-62{fill:#070606;}.cls-63{fill:#121015;}.cls-64{fill:#0b0f20;}.cls-65{fill:#dfdbd3;}.cls-66{fill:#eeece4;}</style><clipPath id="clip-path"><circle class="cls-1" cx="130.82" cy="130.82" r="129.32" transform="translate(-54.19 130.82) rotate(-45)"/></clipPath></defs><title>Asset 2</title><g id="Layer_2" data-name="Layer 2"><g id="Layer_1-2" data-name="Layer 1"><g class="cls-2"><polygon class="cls-3" points="1.5 148.61 72.7 260.13 1.5 260.13 1.5 148.61"/><polygon class="cls-3" points="1.5 139.54 78.5 260.13 72.7 260.13 1.5 148.61 1.5 139.54"/><polygon class="cls-4" points="1.5 130.47 84.29 260.13 78.5 260.13 1.5 139.54 1.5 130.47"/><polygon class="cls-5" points="1.5 121.4 90.08 260.13 84.29 260.13 1.5 130.47 1.5 121.4"/><polygon class="cls-6" points="1.5 112.33 95.87 260.13 90.08 260.13 1.5 121.4 1.5 112.33"/><polygon class="cls-7" points="1.5 103.26 101.66 260.13 95.87 260.13 1.5 112.33 1.5 103.26"/><polygon class="cls-8" points="1.5 94.19 107.45 260.13 101.66 260.13 1.5 103.26 1.5 94.19"/><polygon class="cls-9" points="1.5 85.13 113.24 260.13 107.45 260.13 1.5 94.19 1.5 85.13"/><polygon class="cls-10" points="1.5 76.06 119.03 260.13 113.24 260.13 1.5 85.13 1.5 76.06"/><polygon class="cls-11" points="1.5 66.99 124.82 260.13 119.03 260.13 1.5 76.06 1.5 66.99"/><polygon class="cls-12" points="1.5 57.92 130.61 260.13 124.82 260.13 1.5 66.99 1.5 57.92"/><polygon class="cls-13" points="1.5 48.85 136.4 260.13 130.61 260.13 1.5 57.92 1.5 48.85"/><polygon class="cls-14" points="1.5 39.78 142.19 260.13 136.4 260.13 1.5 48.85 1.5 39.78"/><polygon class="cls-15" points="1.5 36.09 3.94 34.53 147.98 260.13 142.19 260.13 1.5 39.78 1.5 36.09"/><polygon class="cls-16" points="3.94 34.53 8.05 31.91 153.77 260.13 147.98 260.13 3.94 34.53"/><polygon class="cls-17" points="8.05 31.91 12.17 29.28 159.56 260.13 153.77 260.13 8.05 31.91"/><polygon class="cls-18" points="12.17 29.28 16.28 26.66 165.35 260.13 159.56 260.13 12.17 29.28"/><polygon class="cls-19" points="16.28 26.66 20.4 24.03 171.14 260.13 165.35 260.13 16.28 26.66"/><polygon class="cls-20" points="20.4 24.03 24.51 21.4 176.93 260.13 171.14 260.13 20.4 24.03"/><polygon class="cls-21" points="24.51 21.4 28.62 18.77 182.72 260.13 176.93 260.13 24.51 21.4"/><polygon class="cls-22" points="28.62 18.77 32.74 16.15 188.51 260.13 182.72 260.13 28.62 18.77"/><polygon class="cls-23" points="32.74 16.15 36.85 13.52 194.3 260.13 188.51 260.13 32.74 16.15"/><polygon class="cls-24" points="36.85 13.52 40.96 10.9 200.09 260.13 194.3 260.13 36.85 13.52"/><polygon class="cls-25" points="40.96 10.9 45.08 8.27 205.88 260.13 200.09 260.13 40.96 10.9"/><polygon class="cls-26" points="45.08 8.27 49.19 5.64 210.02 257.54 205.95 260.13 205.88 260.13 45.08 8.27"/><rect class="cls-27" x="129.22" y="-19.15" width="4.88" height="298.86" transform="translate(-49.42 91.32) rotate(-32.56)"/><polygon class="cls-28" points="53.3 3.02 55.68 1.5 58.13 1.5 218.25 252.28 214.13 254.91 53.3 3.02"/><polygon class="cls-29" points="63.92 1.5 222.36 249.66 218.25 252.28 58.13 1.5 63.92 1.5"/><polygon class="cls-30" points="69.71 1.5 226.47 247.03 222.36 249.66 63.92 1.5 69.71 1.5"/><polygon class="cls-31" points="75.5 1.5 230.59 244.41 226.47 247.03 69.71 1.5 75.5 1.5"/><polygon class="cls-32" points="81.29 1.5 234.7 241.78 230.59 244.41 75.5 1.5 81.29 1.5"/><polygon class="cls-33" points="87.08 1.5 238.81 239.15 234.7 241.78 81.29 1.5 87.08 1.5"/><polygon class="cls-34" points="92.87 1.5 242.93 236.53 238.81 239.15 87.08 1.5 92.87 1.5"/><polygon class="cls-35" points="98.66 1.5 247.04 233.9 242.93 236.53 92.87 1.5 98.66 1.5"/><polygon class="cls-36" points="104.45 1.5 251.15 231.27 247.04 233.9 98.66 1.5 104.45 1.5"/><polygon class="cls-37" points="110.24 1.5 255.27 228.65 251.15 231.27 104.45 1.5 110.24 1.5"/><polygon class="cls-38" points="116.03 1.5 259.38 226.02 255.27 228.65 110.24 1.5 116.03 1.5"/><polygon class="cls-39" points="121.82 1.5 260.13 218.13 260.13 225.54 259.38 226.02 116.03 1.5 121.82 1.5"/><polygon class="cls-40" points="127.61 1.5 260.13 209.06 260.13 218.13 121.82 1.5 127.61 1.5"/><polygon class="cls-41" points="133.4 1.5 260.13 199.99 260.13 209.06 127.61 1.5 133.4 1.5"/><polygon class="cls-42" points="139.19 1.5 260.13 190.92 260.13 199.99 133.4 1.5 139.19 1.5"/><polygon class="cls-43" points="144.98 1.5 260.13 181.85 260.13 190.92 139.19 1.5 144.98 1.5"/><polygon class="cls-44" points="150.77 1.5 260.13 172.79 260.13 181.85 144.98 1.5 150.77 1.5"/><polygon class="cls-45" points="156.56 1.5 260.13 163.72 260.13 172.79 150.77 1.5 156.56 1.5"/><polygon class="cls-46" points="162.35 1.5 260.13 154.65 260.13 163.72 156.56 1.5 162.35 1.5"/><polygon class="cls-47" points="168.14 1.5 260.13 145.58 260.13 154.65 162.35 1.5 168.14 1.5"/><polygon class="cls-48" points="173.93 1.5 260.13 136.51 260.13 145.58 168.14 1.5 173.93 1.5"/><polygon class="cls-49" points="179.72 1.5 260.13 127.44 260.13 136.51 173.93 1.5 179.72 1.5"/><polygon class="cls-50" points="185.51 1.5 260.13 118.37 260.13 127.44 179.72 1.5 185.51 1.5"/><polygon class="cls-50" points="191.31 1.5 260.13 109.3 260.13 118.37 185.51 1.5 191.31 1.5"/><polygon class="cls-51" points="197.1 1.5 260.13 100.23 260.13 109.3 191.31 1.5 197.1 1.5"/><polygon class="cls-52" points="202.89 1.5 260.13 91.16 260.13 100.23 197.1 1.5 202.89 1.5"/><polygon class="cls-52" points="208.68 1.5 260.13 82.09 260.13 91.16 202.89 1.5 208.68 1.5"/><polygon class="cls-53" points="214.47 1.5 260.13 73.03 260.13 82.09 208.68 1.5 214.47 1.5"/><polygon class="cls-53" points="260.13 73.03 214.47 1.5 260.13 1.5 260.13 73.03"/></g><path class="cls-54" d="M130.82,261.63C58.68,261.63,0,203,0,130.82A131,131,0,0,1,130.82,0C203,0,261.63,58.68,261.63,130.82A131,131,0,0,1,130.82,261.63ZM130.82,3A128,128,0,0,0,3,130.82c0,70.47,57.34,127.81,127.82,127.81A128,128,0,0,0,258.63,130.82C258.63,60.34,201.29,3,130.82,3Z"/><rect class="cls-55" x="96.65" y="183.41" width="72.57" height="48.02"/><path class="cls-56" d="M204.33,142.82a14.41,14.41,0,1,0-14.4,14.41A14.41,14.41,0,0,0,204.33,142.82Z"/><path class="cls-56" d="M90.85,142.82a14.41,14.41,0,1,1-26.26-8.18h5v-2.95H67.29a14.41,14.41,0,0,1,23.56,11.13Z"/><circle class="cls-57" cx="76.44" cy="142.82" r="8.19"/><circle class="cls-57" cx="189.98" cy="142.82" r="8.19"/><path class="cls-56" d="M192.06,116.09v41a61.29,61.29,0,0,1-2.39,17H170.44v5.5h17.38c-7.69,19.6-25.07,34.2-45.93,37.41a55.51,55.51,0,0,1-8.7.67c-22.66,0-42.44-13.36-52.27-32.8h9.79v-2.95H79.53a61.48,61.48,0,0,1-5.22-24.85V122.54h8.93V117H74.31v-.94c0-.55,0-1.07,0-1.61,0-.25,0-.51,0-.75,0-.49,0-1,.07-1.48v0a61.16,61.16,0,0,1,26.63-46.87,57.11,57.11,0,0,1,55.43-4.9,59,59,0,0,1,18.28,12.82,61.44,61.44,0,0,1,6.71,8.26h-1.62v5.52h4.95l.49.92c.78,1.5,1.49,3,2.13,4.62A61.29,61.29,0,0,1,192,114.53C192.05,115.05,192.06,115.56,192.06,116.09Z"/><path class="cls-58" d="M83.23,52.65V117H74.31v-4.37c0-.16,0-.32,0-.47v-.29c0-.24,0-.5,0-.75s0-.4,0-.59v-.11h-.1a3.89,3.89,0,0,1-.41-.17,37.15,37.15,0,0,1-6-2.91c-.73-.44-1.44-.9-2.13-1.39a37.65,37.65,0,0,1-6.41-5.6c-.1-.13-.22-.26-.33-.38V75.41H74.31V69.89H59V52.65c0-3.62,5.44-6.59,12.1-6.59A18.17,18.17,0,0,1,79.68,48C81.88,49.2,83.23,50.84,83.23,52.65Z"/><path class="cls-58" d="M74.31,122.54h8.92v5.38c0,3-3.79,5.59-8.92,6.36Z"/><path class="cls-58" d="M192.06,114.53v19.69l-.33,0a36.89,36.89,0,0,1-4.86-.65c-2.41-.51-3.91-1.22-3.91-2v-17Z"/><path class="cls-59" d="M180.86,81.54v5.52h11.2v27.47H111.78L98.45,101v6L84.78,90.42v23.83c-.25,0-.9-.06-1.6-.11-.92,0-1.93-.09-2.26-.16-.7-.11-1.41-.25-2.1-.42-.95-.22-1.87-.47-2.79-.76-.53-.16-1.07-.35-1.6-.55l-.05,0-.08,0h0c-.08,0-.18-.06-.28-.11h0l0,0a3.07,3.07,0,0,1-.42-.17,35.32,35.32,0,0,1-5.88-3c-.71-.44-1.43-.91-2.11-1.42a37.39,37.39,0,0,1-6.31-5.75c-.1-.13-.22-.25-.32-.38a38.12,38.12,0,0,1-9.13-24.87V75.41H74.26V69.89H49.73V36.27h84.84v8.19l8.52-8.19h8.31a40.45,40.45,0,0,1,33.75,18.26c.09.12.17.24.25.37s.34.53.5.8a40.91,40.91,0,0,1,2.28,4.23c.54,1.16,1,2.34,1.46,3.55a41.61,41.61,0,0,1,2.42,14.06v4Z"/><rect class="cls-60" x="65.78" y="55.49" width="90.71" height="9.6" rx="4.5"/><path class="cls-61" d="M128.82,162.56a2.85,2.85,0,1,0-2.85,2.85A2.85,2.85,0,0,0,128.82,162.56Z"/><circle class="cls-61" cx="140.02" cy="162.56" r="2.85"/><path class="cls-57" d="M131.86,196.21a30,30,0,0,1-28.59-21.07,3.5,3.5,0,0,1,6.69-2.07,22.92,22.92,0,0,0,28.64,15.12,3.5,3.5,0,1,1,2.06,6.69A29.88,29.88,0,0,1,131.86,196.21Z"/><path class="cls-54" d="M115.93,142.92a10.92,10.92,0,1,1-.58-5.48,10.61,10.61,0,0,1,.57,2.25h-3.2v3.23Z"/><path class="cls-62" d="M108.84,141.75a3.71,3.71,0,1,0-3.71,3.71A3.71,3.71,0,0,0,108.84,141.75Z"/><path class="cls-54" d="M171.77,141.31a10.9,10.9,0,0,1-10.91,10.91,10.94,10.94,0,0,1-8.57-4.16,10.77,10.77,0,0,1-2.36-6.75,10.93,10.93,0,0,1,10.52-10.92h.41a10.68,10.68,0,0,1,3.06.44,11,11,0,0,1,7.26,6.91,11.78,11.78,0,0,1,.49,2.05A11,11,0,0,1,171.77,141.31Z"/><path class="cls-62" d="M164.56,141.75a3.71,3.71,0,1,0-3.71,3.71A3.71,3.71,0,0,0,164.56,141.75Z"/><rect class="cls-63" x="146.17" y="91.77" width="38.06" height="14.14" rx="6.63"/><rect class="cls-64" x="96.64" y="117.65" width="16.81" height="2.13" rx="1"/><rect class="cls-64" x="152.45" y="117.65" width="16.81" height="2.13" rx="1"/><polygon class="cls-54" points="173.74 221.83 173.74 237.84 90.85 237.84 90.85 221.83 127.98 221.83 132.65 225.97 137.45 221.83 173.74 221.83"/><polygon class="cls-65" points="132.65 225.97 117.44 237.84 90.85 237.84 90.85 221.83 127.98 221.83 132.65 225.97"/><path class="cls-66" d="M115.34,137.44a6.06,6.06,0,0,1-2.68.6,5.51,5.51,0,0,1-5.75-5.25,4.85,4.85,0,0,1,.51-2.17A11,11,0,0,1,115.34,137.44Z"/><path class="cls-66" d="M171.18,137.73a6.08,6.08,0,0,1-1.92.31,5.52,5.52,0,0,1-5.76-5.25,4.8,4.8,0,0,1,.42-2A11,11,0,0,1,171.18,137.73Z"/><path class="cls-66" d="M100.46,151l0,.17a11,11,0,0,1-4-3.26,3.2,3.2,0,0,1,4,3.09Z"/><path class="cls-66" d="M156.75,151a2.69,2.69,0,0,1,0,.4,10.69,10.69,0,0,1-4.43-3.34,3.09,3.09,0,0,1,1.26-.26A3.2,3.2,0,0,1,156.75,151Z"/><path class="cls-58" d="M98.44,159.72a7.59,7.59,0,1,0-7.59,7.59A7.59,7.59,0,0,0,98.44,159.72Z"/><circle class="cls-58" cx="171.77" cy="159.72" r="7.59"/><path class="cls-64" d="M114.05,157.5H96.54a13.26,13.26,0,0,1-13.25-13.25v-5A13.26,13.26,0,0,1,96.54,126h17.51a13.26,13.26,0,0,1,13.25,13.25v5A13.26,13.26,0,0,1,114.05,157.5Zm-17.51-29a10.76,10.76,0,0,0-10.75,10.75v5A10.76,10.76,0,0,0,96.54,155h17.51a10.76,10.76,0,0,0,10.75-10.75v-5a10.76,10.76,0,0,0-10.75-10.75Z"/><path class="cls-64" d="M169.45,157.5H151.93a13.27,13.27,0,0,1-13.25-13.25v-5A13.27,13.27,0,0,1,151.93,126h17.52a13.27,13.27,0,0,1,13.25,13.25v5A13.27,13.27,0,0,1,169.45,157.5Zm-17.52-29a10.77,10.77,0,0,0-10.75,10.75v5A10.77,10.77,0,0,0,151.93,155h17.52a10.77,10.77,0,0,0,10.75-10.75v-5a10.77,10.77,0,0,0-10.75-10.75Z"/><path class="cls-64" d="M140,144.88a1,1,0,0,1-1-1c0-2.29-2.71-4.15-6-4.15s-6,1.86-6,4.15a1,1,0,0,1-2,0c0-3.39,3.6-6.15,8-6.15s8,2.76,8,6.15A1,1,0,0,1,140,144.88Z"/><rect class="cls-64" x="181.62" y="136.59" width="5.39" height="3.23"/><rect class="cls-64" x="141.09" y="149.79" width="8.23" height="3.22"/><rect class="cls-64" x="79.72" y="145.46" width="7.02" height="3.23"/><rect class="cls-54" x="116.48" y="139.69" width="7.37" height="3.22"/><rect class="cls-56" x="138.67" y="136.4" width="7.34" height="3.15"/><rect class="cls-58" x="83.23" y="117.03" width="0.02" height="5.52"/></g></g></svg>